<svg xmlns="http://www.w3.org/2000/svg" xmlns:xlink="http://www.w3.org/1999/xlink" width="500" zoomAndPan="magnify" viewBox="0 0 375 374.999991" height="500" preserveAspectRatio="xMidYMid meet" version="1.0"><defs><clipPath id="8f9ca644a9"><path d="M 7.042969 120 L 93 120 L 93 141 L 7.042969 141 Z M 7.042969 120 " clip-rule="nonzero"/></clipPath><clipPath id="6af484b054"><path d="M 61.179688 37.527344 L 367.792969 37.527344 L 367.792969 338.25 L 61.179688 338.25 Z M 61.179688 37.527344 " clip-rule="nonzero"/></clipPath></defs><path fill="#1dc4e0" d="M 82.757812 207.429688 L 30.484375 207.429688 C 25.074219 207.429688 20.691406 211.765625 20.691406 217.175781 C 20.691406 222.582031 25.074219 226.917969 30.484375 226.917969 L 82.757812 226.917969 C 88.171875 226.917969 92.554688 222.582031 92.554688 217.175781 C 92.554688 211.765625 88.171875 207.429688 82.757812 207.429688 " fill-opacity="1" fill-rule="nonzero"/><path fill="#1dc4e0" d="M 107.183594 164.121094 L 19.285156 164.121094 C 13.875 164.121094 9.492188 168.457031 9.492188 173.867188 C 9.492188 179.273438 13.875 183.609375 19.285156 183.609375 L 107.183594 183.609375 C 112.59375 183.609375 116.976562 179.273438 116.976562 173.867188 C 116.976562 168.457031 112.59375 164.121094 107.183594 164.121094 " fill-opacity="1" fill-rule="nonzero"/><g clip-path="url(#8f9ca644a9)"><path fill="#1dc4e0" d="M 16.835938 140.300781 L 82.757812 140.300781 C 88.171875 140.300781 92.554688 135.605469 92.554688 130.195312 C 92.554688 124.785156 88.171875 120.09375 82.757812 120.09375 L 16.835938 120.09375 C 11.425781 120.09375 7.042969 124.785156 7.042969 130.195312 C 7.042969 135.605469 11.425781 140.300781 16.835938 140.300781 " fill-opacity="1" fill-rule="nonzero"/></g><path fill="#1dc4e0" d="M 265.097656 313.5625 C 270.246094 313.5625 274.421875 309.386719 274.421875 304.234375 C 274.421875 299.082031 270.246094 294.910156 265.097656 294.910156 C 259.945312 294.910156 255.769531 299.082031 255.769531 304.234375 C 255.769531 309.386719 259.945312 313.5625 265.097656 313.5625 " fill-opacity="1" fill-rule="nonzero"/><path fill="#1dc4e0" d="M 143.253906 304.234375 C 143.253906 309.386719 147.429688 313.5625 152.582031 313.5625 C 157.730469 313.5625 161.90625 309.386719 161.90625 304.234375 C 161.90625 299.082031 157.730469 294.910156 152.582031 294.910156 C 147.429688 294.910156 143.253906 299.082031 143.253906 304.234375 " fill-opacity="1" fill-rule="nonzero"/><g clip-path="url(#6af484b054)"><path fill="#1dc4e0" d="M 170.425781 304.234375 C 170.425781 314.074219 162.421875 322.078125 152.578125 322.078125 C 142.742188 322.078125 134.738281 314.074219 134.738281 304.234375 C 134.738281 294.394531 142.742188 286.390625 152.578125 286.390625 C 162.421875 286.390625 170.425781 294.394531 170.425781 304.234375 Z M 265.097656 286.390625 C 274.9375 286.390625 282.941406 294.394531 282.941406 304.234375 C 282.941406 314.074219 274.9375 322.078125 265.097656 322.078125 C 255.257812 322.078125 247.25 314.074219 247.25 304.234375 C 247.25 294.394531 255.257812 286.390625 265.097656 286.390625 Z M 343.6875 102.769531 L 140.410156 102.769531 L 140.382812 102.453125 L 135.15625 71.273438 C 132.136719 53.300781 117.320312 40.019531 99.125 39.019531 L 72.421875 37.542969 C 66.828125 37.226562 62.011719 41.523438 61.703125 47.136719 C 61.394531 52.75 65.695312 57.542969 71.308594 57.851562 L 98.011719 59.3125 C 106.632812 59.785156 113.652344 66.0625 115.085938 74.578125 L 136.25 200.578125 C 137.082031 205.550781 141.390625 209.070312 146.273438 209.070312 C 146.832031 209.070312 147.398438 209.027344 147.96875 208.929688 C 153.511719 208 157.25 202.816406 156.320312 197.269531 L 143.832031 122.980469 L 343.6875 122.980469 C 345.359375 122.980469 346.339844 123.78125 346.777344 124.347656 C 347.214844 124.917969 347.878906 126.035156 347.445312 127.648438 L 321.640625 223.5625 C 319.503906 231.496094 312.28125 237.023438 304.070312 237.023438 L 171.363281 237.023438 C 155.179688 237.023438 142.019531 250.136719 142.019531 266.320312 L 142.019531 271.792969 C 144.90625 270.703125 148.808594 270.226562 152.5 270.226562 C 152.515625 270.226562 152.527344 270.226562 152.542969 270.226562 C 148.867188 270.226562 145.332031 270.765625 142.011719 271.851562 C 128.351562 276.3125 118.453125 289.136719 118.453125 304.261719 C 118.453125 323.078125 133.765625 338.375 152.578125 338.375 C 168.847656 338.375 182.488281 326.921875 185.882812 311.664062 C 186.414062 309.28125 186.703125 306.808594 186.707031 304.273438 C 186.707031 304.285156 186.707031 304.117188 186.707031 304.128906 C 186.707031 306.679688 186.417969 309.203125 185.882812 311.371094 L 231.792969 311.371094 C 231.257812 309.203125 230.96875 306.675781 230.96875 304.125 C 230.96875 304.117188 230.972656 304.191406 230.972656 304.175781 C 230.976562 306.714844 231.261719 309.230469 231.792969 311.609375 C 235.191406 326.871094 248.828125 338.339844 265.097656 338.339844 C 283.914062 338.339844 299.222656 323.039062 299.222656 304.222656 C 299.222656 285.40625 283.914062 270.101562 265.097656 270.101562 C 250.855469 270.101562 238.628906 278.769531 233.523438 291.191406 C 233.511719 291.214844 233.503906 291.160156 233.496094 291.160156 L 184.183594 291.160156 C 184.171875 291.160156 184.164062 291.21875 184.15625 291.195312 C 180.269531 281.738281 172.230469 274.453125 162.339844 271.492188 C 162.308594 271.480469 162.230469 271.53125 162.230469 271.523438 L 162.230469 266.320312 C 162.230469 261.359375 166.402344 257.234375 171.363281 257.234375 L 304.070312 257.234375 C 321.464844 257.234375 336.777344 245.542969 341.296875 228.742188 L 367.101562 132.835938 C 369.074219 125.496094 367.554688 118.058594 362.929688 112.023438 C 358.304688 105.992188 351.289062 102.769531 343.6875 102.769531 " fill-opacity="1" fill-rule="nonzero"/></g></svg>