<svg xmlns="http://www.w3.org/2000/svg" xmlns:xlink="http://www.w3.org/1999/xlink" width="500" zoomAndPan="magnify" viewBox="0 0 375 374.999991" height="500" preserveAspectRatio="xMidYMid meet" version="1.0"><defs><g/></defs><g fill="#6bc3fe" fill-opacity="1"><g transform="translate(63.612878, 193.250719)"><g><path d="M 23.335938 -22.011719 L 23.335938 -15.015625 L 36 -15.015625 C 34.433594 -10.675781 29.667969 -7.777344 24.242188 -7.777344 C 16.644531 -7.777344 11.640625 -13.207031 11.640625 -21.046875 C 11.640625 -28.945312 16.765625 -34.375 24.242188 -34.375 C 29.550781 -34.375 34.011719 -31.539062 35.820312 -27.015625 L 45.226562 -27.015625 C 43.238281 -36.484375 34.554688 -43.117188 24.0625 -43.117188 C 11.578125 -43.117188 2.351562 -33.648438 2.351562 -21.046875 C 2.351562 -8.382812 11.820312 0.964844 24.242188 0.964844 C 36.90625 0.964844 45.769531 -8.804688 45.769531 -22.011719 Z M 23.335938 -22.011719 "/></g></g></g><g fill="#6bc3fe" fill-opacity="1"><g transform="translate(111.664347, 193.250719)"><g><path d="M 20.867188 -32.746094 C 16.644531 -32.746094 13.75 -31.417969 11.398438 -28.523438 L 9.828125 -32.5625 L 4.222656 -32.5625 L 4.222656 0 L 13.027344 0 L 13.027344 -16.886719 C 13.027344 -22.191406 14.957031 -24.421875 19.902344 -24.421875 L 23.761719 -24.421875 L 23.761719 -32.746094 Z M 20.867188 -32.746094 "/></g></g></g><g fill="#6bc3fe" fill-opacity="1"><g transform="translate(136.202548, 193.250719)"><g><path d="M 19.054688 0.964844 C 28.28125 0.964844 34.375 -4.945312 34.375 -13.75 L 34.375 -32.5625 L 25.570312 -32.5625 L 25.570312 -14.714844 C 25.570312 -10.132812 23.15625 -7.355469 19.054688 -7.355469 C 15.015625 -7.355469 12.542969 -10.070312 12.542969 -14.714844 L 12.542969 -32.5625 L 3.738281 -32.5625 L 3.738281 -13.75 C 3.738281 -4.945312 9.890625 0.964844 19.054688 0.964844 Z M 19.054688 0.964844 "/></g></g></g><g fill="#6bc3fe" fill-opacity="1"><g transform="translate(174.366393, 193.250719)"><g><path d="M 21.949219 -33.46875 C 17.910156 -33.46875 14.292969 -32.023438 11.519531 -29.550781 L 10.011719 -32.5625 L 4.222656 -32.5625 L 4.222656 11.757812 L 13.027344 11.757812 L 13.027344 -1.75 C 15.5 0 18.574219 1.023438 21.949219 1.023438 C 31.78125 1.023438 39.015625 -6.390625 39.015625 -16.28125 C 39.015625 -26.113281 31.78125 -33.46875 21.949219 -33.46875 Z M 21.226562 -7.355469 C 16.101562 -7.355469 12.363281 -11.15625 12.363281 -16.28125 C 12.363281 -21.347656 16.101562 -25.207031 21.226562 -25.207031 C 26.351562 -25.207031 30.09375 -21.347656 30.09375 -16.28125 C 30.09375 -11.15625 26.351562 -7.355469 21.226562 -7.355469 Z M 21.226562 -7.355469 "/></g></g></g><g fill="#6bc3fe" fill-opacity="1"><g transform="translate(215.484458, 193.250719)"><g><path d="M 19.660156 0.964844 C 29.730469 0.964844 37.269531 -6.453125 37.269531 -16.28125 C 37.269531 -26.113281 29.730469 -33.46875 19.660156 -33.46875 C 9.589844 -33.46875 2.050781 -26.113281 2.050781 -16.28125 C 2.050781 -6.453125 9.589844 0.964844 19.660156 0.964844 Z M 19.660156 -7.355469 C 14.59375 -7.355469 10.976562 -10.976562 10.976562 -16.28125 C 10.976562 -21.527344 14.59375 -25.207031 19.660156 -25.207031 C 24.726562 -25.207031 28.34375 -21.527344 28.34375 -16.28125 C 28.34375 -10.976562 24.726562 -7.355469 19.660156 -7.355469 Z M 19.660156 -7.355469 "/></g></g></g><g fill="#6bc3fe" fill-opacity="1"><g transform="translate(254.854101, 193.250719)"><g/></g></g><g fill="#6bc3fe" fill-opacity="1"><g transform="translate(269.263517, 193.250719)"><g><path d="M 2.050781 -40.101562 L 2.050781 -32.503906 L 8.261719 -32.503906 L 8.261719 0 L 16.765625 0 L 16.765625 -40.101562 Z M 2.050781 -40.101562 "/></g></g></g><g fill="#6bc3fe" fill-opacity="1"><g transform="translate(290.968064, 193.250719)"><g><path d="M 19.054688 0.722656 C 29.066406 0.722656 35.339844 -7.296875 35.339844 -20.082031 C 35.339844 -32.867188 29.128906 -40.824219 19.054688 -40.824219 C 9.046875 -40.824219 2.835938 -32.867188 2.835938 -20.082031 C 2.835938 -7.296875 9.105469 0.722656 19.054688 0.722656 Z M 19.054688 -7.296875 C 14.171875 -7.296875 11.519531 -11.820312 11.519531 -20.082031 C 11.519531 -28.28125 14.171875 -32.804688 19.054688 -32.804688 C 23.941406 -32.804688 26.65625 -28.222656 26.65625 -20.019531 C 26.65625 -11.757812 24 -7.296875 19.054688 -7.296875 Z M 19.054688 -7.296875 "/></g></g></g></svg>