<svg xmlns="http://www.w3.org/2000/svg" xmlns:xlink="http://www.w3.org/1999/xlink" width="500" zoomAndPan="magnify" viewBox="0 0 375 374.999991" height="500" preserveAspectRatio="xMidYMid meet" version="1.0"><defs><g/><clipPath id="2dc8f1d125"><path d="M 203 126 L 262.582031 126 L 262.582031 216 L 203 216 Z M 203 126 " clip-rule="nonzero"/></clipPath><clipPath id="ffeee4c78a"><path d="M 132 176 L 222 176 L 222 235.738281 L 132 235.738281 Z M 132 176 " clip-rule="nonzero"/></clipPath><clipPath id="e9dd93884e"><path d="M 112.582031 105 L 172 105 L 172 195 L 112.582031 195 Z M 112.582031 105 " clip-rule="nonzero"/></clipPath><clipPath id="3463902c25"><path d="M 153 85.738281 L 243 85.738281 L 243 145 L 153 145 Z M 153 85.738281 " clip-rule="nonzero"/></clipPath></defs><g fill="#6bc3fe" fill-opacity="1"><g transform="translate(90.187499, 273.157789)"><g><path d="M 17.101562 -16.128906 L 17.101562 -11.003906 L 26.382812 -11.003906 C 25.234375 -7.820312 21.742188 -5.699219 17.765625 -5.699219 C 12.195312 -5.699219 8.527344 -9.675781 8.527344 -15.421875 C 8.527344 -21.210938 12.285156 -25.1875 17.765625 -25.1875 C 21.652344 -25.1875 24.921875 -23.113281 26.25 -19.796875 L 33.140625 -19.796875 C 31.683594 -26.734375 25.320312 -31.597656 17.632812 -31.597656 C 8.484375 -31.597656 1.722656 -24.65625 1.722656 -15.421875 C 1.722656 -6.140625 8.660156 0.707031 17.765625 0.707031 C 27.042969 0.707031 33.539062 -6.453125 33.539062 -16.128906 Z M 17.101562 -16.128906 "/></g></g></g><g fill="#6bc3fe" fill-opacity="1"><g transform="translate(125.398747, 273.157789)"><g><path d="M 15.289062 -23.996094 C 12.195312 -23.996094 10.074219 -23.023438 8.351562 -20.902344 L 7.203125 -23.863281 L 3.09375 -23.863281 L 3.09375 0 L 9.546875 0 L 9.546875 -12.375 C 9.546875 -16.261719 10.960938 -17.898438 14.582031 -17.898438 L 17.410156 -17.898438 L 17.410156 -23.996094 Z M 15.289062 -23.996094 "/></g></g></g><g fill="#6bc3fe" fill-opacity="1"><g transform="translate(143.379897, 273.157789)"><g><path d="M 13.964844 0.707031 C 20.726562 0.707031 25.1875 -3.625 25.1875 -10.074219 L 25.1875 -23.863281 L 18.738281 -23.863281 L 18.738281 -10.78125 C 18.738281 -7.425781 16.96875 -5.390625 13.964844 -5.390625 C 11.003906 -5.390625 9.191406 -7.378906 9.191406 -10.78125 L 9.191406 -23.863281 L 2.738281 -23.863281 L 2.738281 -10.074219 C 2.738281 -3.625 7.246094 0.707031 13.964844 0.707031 Z M 13.964844 0.707031 "/></g></g></g><g fill="#6bc3fe" fill-opacity="1"><g transform="translate(171.345673, 273.157789)"><g><path d="M 16.085938 -24.527344 C 13.125 -24.527344 10.472656 -23.464844 8.441406 -21.652344 L 7.335938 -23.863281 L 3.09375 -23.863281 L 3.09375 8.617188 L 9.546875 8.617188 L 9.546875 -1.28125 C 11.355469 0 13.609375 0.75 16.085938 0.75 C 23.289062 0.75 28.589844 -4.683594 28.589844 -11.929688 C 28.589844 -19.132812 23.289062 -24.527344 16.085938 -24.527344 Z M 15.554688 -5.390625 C 11.796875 -5.390625 9.058594 -8.175781 9.058594 -11.929688 C 9.058594 -15.644531 11.796875 -18.472656 15.554688 -18.472656 C 19.3125 -18.472656 22.050781 -15.644531 22.050781 -11.929688 C 22.050781 -8.175781 19.3125 -5.390625 15.554688 -5.390625 Z M 15.554688 -5.390625 "/></g></g></g><g fill="#6bc3fe" fill-opacity="1"><g transform="translate(201.476249, 273.157789)"><g><path d="M 14.40625 0.707031 C 21.785156 0.707031 27.308594 -4.726562 27.308594 -11.929688 C 27.308594 -19.132812 21.785156 -24.527344 14.40625 -24.527344 C 7.027344 -24.527344 1.503906 -19.132812 1.503906 -11.929688 C 1.503906 -4.726562 7.027344 0.707031 14.40625 0.707031 Z M 14.40625 -5.390625 C 10.695312 -5.390625 8.042969 -8.042969 8.042969 -11.929688 C 8.042969 -15.777344 10.695312 -18.472656 14.40625 -18.472656 C 18.117188 -18.472656 20.769531 -15.777344 20.769531 -11.929688 C 20.769531 -8.042969 18.117188 -5.390625 14.40625 -5.390625 Z M 14.40625 -5.390625 "/></g></g></g><g fill="#6bc3fe" fill-opacity="1"><g transform="translate(230.325612, 273.157789)"><g/></g></g><g fill="#6bc3fe" fill-opacity="1"><g transform="translate(240.884571, 273.157789)"><g><path d="M 1.503906 -29.386719 L 1.503906 -23.820312 L 6.054688 -23.820312 L 6.054688 0 L 12.285156 0 L 12.285156 -29.386719 Z M 1.503906 -29.386719 "/></g></g></g><g fill="#6bc3fe" fill-opacity="1"><g transform="translate(256.789271, 273.157789)"><g><path d="M 13.964844 0.53125 C 21.300781 0.53125 25.894531 -5.347656 25.894531 -14.714844 C 25.894531 -24.082031 21.34375 -29.917969 13.964844 -29.917969 C 6.628906 -29.917969 2.078125 -24.082031 2.078125 -14.714844 C 2.078125 -5.347656 6.671875 0.53125 13.964844 0.53125 Z M 13.964844 -5.347656 C 10.382812 -5.347656 8.441406 -8.660156 8.441406 -14.714844 C 8.441406 -20.726562 10.382812 -24.039062 13.964844 -24.039062 C 17.542969 -24.039062 19.53125 -20.679688 19.53125 -14.671875 C 19.53125 -8.617188 17.585938 -5.347656 13.964844 -5.347656 Z M 13.964844 -5.347656 "/></g></g></g><g clip-path="url(#2dc8f1d125)"><path fill="#70a33c" d="M 203.546875 215.839844 C 214.140625 214.703125 237.882812 207.378906 243.792969 172.683594 C 245.5625 173.433594 247.457031 173.945312 249.464844 173.945312 C 256.789062 173.945312 262.582031 168.003906 262.582031 160.828125 C 262.582031 153.507812 256.789062 147.5625 249.464844 147.5625 C 246.824219 147.5625 244.304688 148.316406 242.261719 149.695312 C 236.320312 139.339844 231.789062 135.679688 218.042969 126.734375 L 218.433594 127.125 L 218.554688 127.125 L 218.554688 127.246094 C 227.527344 135.589844 233.199219 147.445312 233.199219 160.679688 C 233.199219 161.070312 233.199219 161.308594 233.199219 161.550781 C 234.339844 183.910156 223.625 207.738281 203.546875 215.839844 Z M 203.546875 215.839844 " fill-opacity="1" fill-rule="nonzero"/></g><g clip-path="url(#ffeee4c78a)"><path fill="#773d8a" d="M 132.480469 176.707031 C 133.621094 187.300781 140.941406 210.917969 175.636719 216.953125 C 174.886719 218.601562 174.375 220.613281 174.375 222.625 C 174.375 229.828125 180.316406 235.738281 187.640625 235.738281 C 194.84375 235.738281 200.757812 229.796875 200.757812 222.625 C 200.757812 219.984375 200.007812 217.460938 198.625 215.421875 C 209.101562 209.480469 212.640625 204.828125 221.585938 191.203125 L 221.195312 191.59375 L 221.195312 191.710938 C 214.261719 199.15625 204.777344 204.347656 194.183594 205.847656 L 187.609375 217.582031 L 181.21875 206.359375 C 160.628906 205.726562 139.953125 195.132812 132.480469 176.707031 Z M 132.480469 176.707031 " fill-opacity="1" fill-rule="nonzero"/></g><g clip-path="url(#e9dd93884e)"><path fill="#e13990" d="M 171.613281 105.636719 C 161.019531 106.777344 137.402344 114.101562 131.367188 148.792969 C 129.71875 148.042969 127.707031 147.535156 125.695312 147.535156 C 118.492188 147.535156 112.582031 153.476562 112.582031 160.648438 C 112.582031 167.972656 118.523438 173.914062 125.695312 173.914062 C 128.335938 173.914062 130.859375 173.164062 132.898438 171.785156 C 138.839844 182.136719 143.492188 185.800781 157.117188 194.742188 L 156.730469 194.351562 L 156.609375 194.234375 C 147.636719 185.917969 141.964844 174.066406 141.964844 160.679688 C 141.964844 160.441406 141.964844 160.167969 141.964844 159.929688 C 140.824219 137.570312 151.535156 113.742188 171.613281 105.636719 Z M 171.613281 105.636719 " fill-opacity="1" fill-rule="nonzero"/></g><g clip-path="url(#3463902c25)"><path fill="#f0831e" d="M 242.683594 144.773438 C 241.664062 134.179688 234.21875 110.441406 199.527344 104.527344 C 200.277344 102.875 200.785156 100.867188 200.785156 98.855469 C 200.785156 91.652344 194.84375 85.738281 187.671875 85.738281 C 180.347656 85.738281 174.40625 91.683594 174.40625 98.855469 C 174.40625 101.496094 175.15625 104.015625 176.535156 106.058594 C 166.183594 112 162.519531 116.652344 153.578125 130.277344 L 153.699219 130.277344 L 153.9375 129.886719 L 154.058594 129.765625 C 162.402344 120.792969 174.253906 115.121094 187.640625 115.121094 C 187.882812 115.121094 188.152344 115.121094 188.390625 115.121094 C 210.75 113.980469 234.578125 124.695312 242.683594 144.773438 Z M 242.683594 144.773438 " fill-opacity="1" fill-rule="nonzero"/></g><path fill="#6bc3fe" d="M 162.910156 153.355469 C 167.082031 153.355469 170.355469 156.628906 170.355469 160.800781 C 170.355469 164.851562 167.082031 168.121094 162.910156 168.121094 C 158.859375 168.121094 155.589844 164.851562 155.589844 160.800781 C 155.589844 156.628906 158.859375 153.355469 162.910156 153.355469 Z M 162.910156 153.355469 " fill-opacity="1" fill-rule="nonzero"/><path fill="#6bc3fe" d="M 187.640625 153.355469 C 191.691406 153.355469 194.964844 156.628906 194.964844 160.800781 C 194.964844 164.851562 191.691406 168.121094 187.640625 168.121094 C 183.46875 168.121094 180.199219 164.851562 180.199219 160.800781 C 180.199219 156.628906 183.46875 153.355469 187.640625 153.355469 Z M 187.640625 153.355469 " fill-opacity="1" fill-rule="nonzero"/><path fill="#6bc3fe" d="M 212.25 153.355469 C 216.300781 153.355469 219.574219 156.628906 219.574219 160.800781 C 219.574219 164.851562 216.300781 168.121094 212.25 168.121094 C 208.199219 168.121094 204.808594 164.851562 204.808594 160.800781 C 204.808594 156.628906 208.230469 153.355469 212.25 153.355469 Z M 212.25 153.355469 " fill-opacity="1" fill-rule="nonzero"/></svg>