<svg xmlns="http://www.w3.org/2000/svg" xmlns:xlink="http://www.w3.org/1999/xlink" width="500" zoomAndPan="magnify" viewBox="0 0 375 374.999991" height="500" preserveAspectRatio="xMidYMid meet" version="1.0"><defs><clipPath id="e29aee0beb"><path d="M 225 105 L 367.960938 105 L 367.960938 321 L 225 321 Z M 225 105 " clip-rule="nonzero"/></clipPath><clipPath id="07567f8a7b"><path d="M 55 225 L 270 225 L 270 367.960938 L 55 367.960938 Z M 55 225 " clip-rule="nonzero"/></clipPath><clipPath id="0db4ffe2e4"><path d="M 7.210938 55 L 150 55 L 150 270 L 7.210938 270 Z M 7.210938 55 " clip-rule="nonzero"/></clipPath><clipPath id="38d2d8c1f9"><path d="M 105 7.210938 L 321 7.210938 L 321 150 L 105 150 Z M 105 7.210938 " clip-rule="nonzero"/></clipPath></defs><g clip-path="url(#e29aee0beb)"><path fill="#70a33c" d="M 225.984375 320.105469 C 251.464844 317.363281 308.558594 299.753906 322.777344 216.3125 C 327.035156 218.117188 331.582031 219.34375 336.417969 219.34375 C 354.03125 219.34375 367.960938 205.054688 367.960938 187.804688 C 367.960938 170.191406 354.03125 155.898438 336.417969 155.898438 C 330.066406 155.898438 324.003906 157.703125 319.097656 161.023438 C 304.804688 136.121094 293.90625 127.316406 260.847656 105.808594 L 261.785156 106.746094 L 262.074219 106.746094 L 262.074219 107.035156 C 283.65625 127.101562 297.296875 155.609375 297.296875 187.441406 C 297.296875 188.378906 297.296875 188.957031 297.296875 189.535156 C 300.042969 243.308594 274.273438 300.617188 225.984375 320.105469 Z M 225.984375 320.105469 " fill-opacity="1" fill-rule="nonzero"/></g><g clip-path="url(#07567f8a7b)"><path fill="#773d8a" d="M 55.066406 225.984375 C 57.808594 251.464844 75.421875 308.269531 158.859375 322.777344 C 157.054688 326.746094 155.828125 331.582031 155.828125 336.417969 C 155.828125 353.742188 170.121094 367.960938 187.730469 367.960938 C 205.054688 367.960938 219.273438 353.671875 219.273438 336.417969 C 219.273438 330.066406 217.46875 324.003906 214.148438 319.097656 C 239.339844 304.804688 247.855469 293.617188 269.367188 260.847656 L 268.425781 261.785156 L 268.425781 262.074219 C 251.753906 279.976562 228.945312 292.460938 203.464844 296.070312 L 187.660156 324.292969 L 172.285156 297.296875 C 122.769531 295.78125 73.039062 270.304688 55.066406 225.984375 Z M 55.066406 225.984375 " fill-opacity="1" fill-rule="nonzero"/></g><g clip-path="url(#0db4ffe2e4)"><path fill="#e13990" d="M 149.1875 55.066406 C 123.707031 57.808594 66.902344 75.421875 52.394531 158.859375 C 48.425781 157.054688 43.589844 155.828125 38.753906 155.828125 C 21.429688 155.828125 7.210938 170.121094 7.210938 187.371094 C 7.210938 204.980469 21.503906 219.273438 38.753906 219.273438 C 45.105469 219.273438 51.167969 217.46875 56.078125 214.148438 C 70.367188 239.050781 81.554688 247.855469 114.324219 269.363281 L 113.097656 268.136719 C 91.515625 248.144531 77.875 219.632812 77.875 187.441406 C 77.875 186.863281 77.875 186.214844 77.875 185.636719 C 75.132812 131.863281 100.898438 74.554688 149.1875 55.066406 Z M 149.1875 55.066406 " fill-opacity="1" fill-rule="nonzero"/></g><g clip-path="url(#38d2d8c1f9)"><path fill="#f0831e" d="M 320.105469 149.1875 C 317.652344 123.707031 299.753906 66.613281 216.3125 52.394531 C 218.117188 48.425781 219.34375 43.589844 219.34375 38.753906 C 219.34375 21.429688 205.054688 7.210938 187.804688 7.210938 C 170.191406 7.210938 155.898438 21.503906 155.898438 38.753906 C 155.898438 45.105469 157.703125 51.167969 161.023438 56.078125 C 136.121094 70.367188 127.316406 81.554688 105.808594 114.324219 L 106.097656 114.324219 L 106.675781 113.386719 L 106.960938 113.097656 C 127.027344 91.515625 155.539062 77.875 187.730469 77.875 C 188.308594 77.875 188.957031 77.875 189.535156 77.875 C 243.308594 75.132812 300.617188 100.898438 320.105469 149.1875 Z M 320.105469 149.1875 " fill-opacity="1" fill-rule="nonzero"/></g><path fill="#6bc3fe" d="M 128.253906 169.832031 C 138.289062 169.832031 146.15625 177.699219 146.15625 187.730469 C 146.15625 197.476562 138.289062 205.34375 128.253906 205.34375 C 118.511719 205.34375 110.644531 197.476562 110.644531 187.730469 C 110.644531 177.699219 118.511719 169.832031 128.253906 169.832031 Z M 128.253906 169.832031 " fill-opacity="1" fill-rule="nonzero"/><path fill="#6bc3fe" d="M 187.730469 169.832031 C 197.476562 169.832031 205.34375 177.699219 205.34375 187.730469 C 205.34375 197.476562 197.476562 205.34375 187.730469 205.34375 C 177.699219 205.34375 169.832031 197.476562 169.832031 187.730469 C 169.832031 177.699219 177.699219 169.832031 187.730469 169.832031 Z M 187.730469 169.832031 " fill-opacity="1" fill-rule="nonzero"/><path fill="#6bc3fe" d="M 246.917969 169.832031 C 256.660156 169.832031 264.527344 177.699219 264.527344 187.730469 C 264.527344 197.476562 256.660156 205.34375 246.917969 205.34375 C 237.171875 205.34375 229.015625 197.476562 229.015625 187.730469 C 229.015625 177.699219 237.246094 169.832031 246.917969 169.832031 Z M 246.917969 169.832031 " fill-opacity="1" fill-rule="nonzero"/></svg>