<svg xmlns="http://www.w3.org/2000/svg" xmlns:xlink="http://www.w3.org/1999/xlink" width="500" zoomAndPan="magnify" viewBox="0 0 375 374.999991" height="500" preserveAspectRatio="xMidYMid meet" version="1.0"><defs><clipPath id="4f74e94c0d"><path d="M 12.164062 12.164062 L 177 12.164062 L 177 177 L 12.164062 177 Z M 12.164062 12.164062 " clip-rule="nonzero"/></clipPath><clipPath id="cdc1e81f80"><path d="M 12.164062 199 L 177 199 L 177 363.164062 L 12.164062 363.164062 Z M 12.164062 199 " clip-rule="nonzero"/></clipPath><clipPath id="be3c4b26cd"><path d="M 199 12.164062 L 363.164062 12.164062 L 363.164062 177 L 199 177 Z M 199 12.164062 " clip-rule="nonzero"/></clipPath><clipPath id="ac87c44e87"><path d="M 199 199 L 363.164062 199 L 363.164062 363.164062 L 199 363.164062 Z M 199 199 " clip-rule="nonzero"/></clipPath></defs><g clip-path="url(#4f74e94c0d)"><path fill="#1dc4e0" d="M 176.097656 47.300781 C 176.097656 27.90625 160.359375 12.171875 140.96875 12.171875 L 47.300781 12.171875 C 27.90625 12.171875 12.171875 27.90625 12.171875 47.300781 L 12.171875 140.96875 C 12.171875 160.359375 27.90625 176.097656 47.300781 176.097656 C 47.300781 176.097656 140.96875 176.097656 140.96875 176.097656 C 160.359375 176.097656 176.097656 160.359375 176.097656 140.96875 C 176.097656 140.96875 176.097656 47.300781 176.097656 47.300781 Z M 152.6875 47.300781 L 152.6875 140.96875 C 152.6875 147.433594 147.433594 152.6875 140.96875 152.6875 L 47.300781 152.6875 C 40.835938 152.6875 35.582031 147.433594 35.582031 140.96875 L 35.582031 47.300781 C 35.582031 40.835938 40.835938 35.582031 47.300781 35.582031 L 140.96875 35.582031 C 147.433594 35.582031 152.6875 40.835938 152.6875 47.300781 Z M 152.6875 47.300781 " fill-opacity="1" fill-rule="evenodd"/></g><g clip-path="url(#cdc1e81f80)"><path fill="#1dc4e0" d="M 176.097656 234.65625 C 176.097656 215.265625 160.359375 199.527344 140.96875 199.527344 C 140.96875 199.527344 47.300781 199.527344 47.300781 199.527344 C 27.90625 199.527344 12.171875 215.265625 12.171875 234.65625 L 12.171875 328.324219 C 12.171875 347.714844 27.90625 363.453125 47.300781 363.453125 C 47.300781 363.453125 140.96875 363.453125 140.96875 363.453125 C 160.359375 363.453125 176.097656 347.714844 176.097656 328.324219 C 176.097656 328.324219 176.097656 234.65625 176.097656 234.65625 Z M 152.6875 234.65625 L 152.6875 328.324219 C 152.6875 334.789062 147.433594 340.042969 140.96875 340.042969 L 47.300781 340.042969 C 40.835938 340.042969 35.582031 334.789062 35.582031 328.324219 L 35.582031 234.65625 C 35.582031 228.191406 40.835938 222.9375 47.300781 222.9375 L 140.96875 222.9375 C 147.433594 222.9375 152.6875 228.191406 152.6875 234.65625 Z M 152.6875 234.65625 " fill-opacity="1" fill-rule="evenodd"/></g><g clip-path="url(#be3c4b26cd)"><path fill="#1dc4e0" d="M 363.453125 47.300781 C 363.453125 27.90625 347.714844 12.171875 328.324219 12.171875 L 234.65625 12.171875 C 215.265625 12.171875 199.527344 27.90625 199.527344 47.300781 C 199.527344 47.300781 199.527344 140.96875 199.527344 140.96875 C 199.527344 160.359375 215.265625 176.097656 234.65625 176.097656 C 234.65625 176.097656 328.324219 176.097656 328.324219 176.097656 C 347.714844 176.097656 363.453125 160.359375 363.453125 140.96875 C 363.453125 140.96875 363.453125 47.300781 363.453125 47.300781 Z M 340.042969 47.300781 L 340.042969 140.96875 C 340.042969 147.433594 334.789062 152.6875 328.324219 152.6875 L 234.65625 152.6875 C 228.191406 152.6875 222.9375 147.433594 222.9375 140.96875 L 222.9375 47.300781 C 222.9375 40.835938 228.191406 35.582031 234.65625 35.582031 L 328.324219 35.582031 C 334.789062 35.582031 340.042969 40.835938 340.042969 47.300781 Z M 340.042969 47.300781 " fill-opacity="1" fill-rule="evenodd"/></g><g clip-path="url(#ac87c44e87)"><path fill="#1dc4e0" d="M 363.453125 234.65625 C 363.453125 215.265625 347.714844 199.527344 328.324219 199.527344 C 328.324219 199.527344 234.65625 199.527344 234.65625 199.527344 C 215.265625 199.527344 199.527344 215.265625 199.527344 234.65625 C 199.527344 234.65625 199.527344 328.324219 199.527344 328.324219 C 199.527344 347.714844 215.265625 363.453125 234.65625 363.453125 C 234.65625 363.453125 328.324219 363.453125 328.324219 363.453125 C 347.714844 363.453125 363.453125 347.714844 363.453125 328.324219 C 363.453125 328.324219 363.453125 234.65625 363.453125 234.65625 Z M 340.042969 234.65625 L 340.042969 328.324219 C 340.042969 334.789062 334.789062 340.042969 328.324219 340.042969 L 234.65625 340.042969 C 228.191406 340.042969 222.9375 334.789062 222.9375 328.324219 L 222.9375 234.65625 C 222.9375 228.191406 228.191406 222.9375 234.65625 222.9375 L 328.324219 222.9375 C 334.789062 222.9375 340.042969 228.191406 340.042969 234.65625 Z M 340.042969 234.65625 " fill-opacity="1" fill-rule="evenodd"/></g></svg>