<svg xmlns="http://www.w3.org/2000/svg" xmlns:xlink="http://www.w3.org/1999/xlink" width="500" zoomAndPan="magnify" viewBox="0 0 375 374.999991" height="500" preserveAspectRatio="xMidYMid meet" version="1.0"><defs><clipPath id="1f3efcf7c7"><path d="M 15.300781 15.300781 L 167 15.300781 L 167 167 L 15.300781 167 Z M 15.300781 15.300781 " clip-rule="nonzero"/></clipPath><clipPath id="a8da4ea9f3"><path d="M 15.300781 206 L 167 206 L 167 359 L 15.300781 359 Z M 15.300781 206 " clip-rule="nonzero"/></clipPath><clipPath id="2677c1a3ec"><path d="M 206 15.300781 L 359 15.300781 L 359 167 L 206 167 Z M 206 15.300781 " clip-rule="nonzero"/></clipPath></defs><path fill="#e74c18" d="M 358.890625 282.804688 C 358.890625 284.050781 358.859375 285.292969 358.800781 286.539062 C 358.738281 287.78125 358.644531 289.023438 358.523438 290.261719 C 358.402344 291.5 358.25 292.738281 358.066406 293.96875 C 357.882812 295.199219 357.671875 296.425781 357.429688 297.648438 C 357.1875 298.871094 356.914062 300.082031 356.609375 301.292969 C 356.308594 302.5 355.976562 303.699219 355.613281 304.890625 C 355.253906 306.082031 354.863281 307.265625 354.441406 308.4375 C 354.023438 309.609375 353.574219 310.769531 353.097656 311.921875 C 352.621094 313.070312 352.117188 314.210938 351.585938 315.335938 C 351.054688 316.460938 350.492188 317.574219 349.90625 318.671875 C 349.320312 319.769531 348.707031 320.851562 348.066406 321.921875 C 347.425781 322.988281 346.757812 324.039062 346.066406 325.074219 C 345.375 326.109375 344.660156 327.128906 343.917969 328.128906 C 343.175781 329.128906 342.410156 330.109375 341.621094 331.074219 C 340.828125 332.035156 340.015625 332.976562 339.179688 333.902344 C 338.34375 334.824219 337.484375 335.726562 336.605469 336.605469 C 335.726562 337.484375 334.824219 338.34375 333.902344 339.179688 C 332.976562 340.015625 332.035156 340.828125 331.074219 341.621094 C 330.109375 342.410156 329.128906 343.175781 328.128906 343.917969 C 327.128906 344.660156 326.109375 345.375 325.074219 346.066406 C 324.039062 346.757812 322.988281 347.425781 321.921875 348.066406 C 320.851562 348.707031 319.769531 349.320312 318.671875 349.90625 C 317.574219 350.492188 316.460938 351.054688 315.335938 351.585938 C 314.210938 352.117188 313.070312 352.621094 311.921875 353.097656 C 310.769531 353.574219 309.609375 354.023438 308.4375 354.441406 C 307.265625 354.863281 306.082031 355.253906 304.890625 355.613281 C 303.699219 355.976562 302.5 356.308594 301.292969 356.609375 C 300.082031 356.914062 298.871094 357.1875 297.648438 357.429688 C 296.425781 357.671875 295.199219 357.882812 293.96875 358.066406 C 292.738281 358.25 291.5 358.402344 290.261719 358.523438 C 289.023438 358.644531 287.78125 358.738281 286.539062 358.800781 C 285.292969 358.859375 284.050781 358.890625 282.804688 358.890625 C 281.558594 358.890625 280.316406 358.859375 279.070312 358.800781 C 277.828125 358.738281 276.585938 358.644531 275.347656 358.523438 C 274.105469 358.402344 272.871094 358.25 271.640625 358.066406 C 270.410156 357.882812 269.183594 357.671875 267.960938 357.429688 C 266.738281 357.1875 265.523438 356.914062 264.316406 356.609375 C 263.109375 356.308594 261.910156 355.976562 260.71875 355.613281 C 259.527344 355.253906 258.34375 354.863281 257.171875 354.441406 C 256 354.023438 254.835938 353.574219 253.6875 353.097656 C 252.535156 352.621094 251.398438 352.117188 250.273438 351.585938 C 249.148438 351.054688 248.035156 350.492188 246.9375 349.90625 C 245.839844 349.320312 244.757812 348.707031 243.6875 348.066406 C 242.621094 347.425781 241.570312 346.757812 240.53125 346.066406 C 239.496094 345.375 238.480469 344.660156 237.480469 343.917969 C 236.480469 343.175781 235.5 342.410156 234.535156 341.621094 C 233.574219 340.828125 232.628906 340.015625 231.707031 339.179688 C 230.785156 338.34375 229.882812 337.484375 229.003906 336.605469 C 228.121094 335.726562 227.265625 334.824219 226.429688 333.902344 C 225.59375 332.976562 224.777344 332.035156 223.988281 331.074219 C 223.199219 330.109375 222.433594 329.128906 221.691406 328.128906 C 220.949219 327.128906 220.234375 326.109375 219.539062 325.074219 C 218.847656 324.039062 218.183594 322.988281 217.542969 321.921875 C 216.902344 320.851562 216.289062 319.769531 215.703125 318.671875 C 215.117188 317.574219 214.554688 316.460938 214.023438 315.335938 C 213.492188 314.210938 212.984375 313.070312 212.511719 311.921875 C 212.035156 310.769531 211.585938 309.609375 211.164062 308.4375 C 210.746094 307.265625 210.355469 306.082031 209.996094 304.890625 C 209.632812 303.699219 209.300781 302.5 209 301.292969 C 208.695312 300.082031 208.421875 298.871094 208.179688 297.648438 C 207.9375 296.425781 207.722656 295.199219 207.542969 293.96875 C 207.359375 292.738281 207.207031 291.5 207.085938 290.261719 C 206.960938 289.023438 206.871094 287.78125 206.808594 286.539062 C 206.75 285.292969 206.71875 284.050781 206.71875 282.804688 C 206.71875 281.558594 206.75 280.316406 206.808594 279.070312 C 206.871094 277.828125 206.960938 276.585938 207.085938 275.347656 C 207.207031 274.105469 207.359375 272.871094 207.542969 271.640625 C 207.722656 270.410156 207.9375 269.183594 208.179688 267.960938 C 208.421875 266.738281 208.695312 265.523438 209 264.316406 C 209.300781 263.109375 209.632812 261.910156 209.996094 260.71875 C 210.355469 259.527344 210.746094 258.34375 211.164062 257.171875 C 211.585938 256 212.035156 254.835938 212.511719 253.6875 C 212.984375 252.535156 213.492188 251.398438 214.023438 250.273438 C 214.554688 249.148438 215.117188 248.035156 215.703125 246.9375 C 216.289062 245.839844 216.902344 244.757812 217.542969 243.6875 C 218.183594 242.621094 218.847656 241.570312 219.539062 240.53125 C 220.234375 239.496094 220.949219 238.480469 221.691406 237.480469 C 222.433594 236.480469 223.199219 235.5 223.988281 234.535156 C 224.777344 233.574219 225.59375 232.628906 226.429688 231.707031 C 227.265625 230.785156 228.121094 229.882812 229.003906 229.003906 C 229.882812 228.121094 230.785156 227.265625 231.707031 226.429688 C 232.628906 225.59375 233.574219 224.777344 234.535156 223.988281 C 235.5 223.199219 236.480469 222.433594 237.480469 221.691406 C 238.480469 220.949219 239.496094 220.234375 240.53125 219.539062 C 241.570312 218.847656 242.621094 218.183594 243.6875 217.542969 C 244.757812 216.902344 245.839844 216.289062 246.9375 215.703125 C 248.035156 215.117188 249.148438 214.554688 250.273438 214.023438 C 251.398438 213.492188 252.535156 212.984375 253.6875 212.511719 C 254.835938 212.035156 256 211.585938 257.171875 211.164062 C 258.34375 210.746094 259.527344 210.355469 260.71875 209.996094 C 261.910156 209.632812 263.109375 209.300781 264.316406 209 C 265.523438 208.695312 266.738281 208.421875 267.960938 208.179688 C 269.183594 207.9375 270.410156 207.722656 271.640625 207.542969 C 272.871094 207.359375 274.105469 207.207031 275.347656 207.085938 C 276.585938 206.960938 277.828125 206.871094 279.070312 206.808594 C 280.316406 206.75 281.558594 206.71875 282.804688 206.71875 C 284.050781 206.71875 285.292969 206.75 286.539062 206.808594 C 287.78125 206.871094 289.023438 206.960938 290.261719 207.085938 C 291.5 207.207031 292.738281 207.359375 293.96875 207.542969 C 295.199219 207.722656 296.425781 207.9375 297.648438 208.179688 C 298.871094 208.421875 300.082031 208.695312 301.292969 209 C 302.5 209.300781 303.699219 209.632812 304.890625 209.996094 C 306.082031 210.355469 307.265625 210.746094 308.4375 211.164062 C 309.609375 211.585938 310.769531 212.035156 311.921875 212.511719 C 313.070312 212.984375 314.210938 213.492188 315.335938 214.023438 C 316.460938 214.554688 317.574219 215.117188 318.671875 215.703125 C 319.769531 216.289062 320.851562 216.902344 321.921875 217.542969 C 322.988281 218.183594 324.039062 218.847656 325.074219 219.539062 C 326.109375 220.234375 327.128906 220.949219 328.128906 221.691406 C 329.128906 222.433594 330.109375 223.199219 331.074219 223.988281 C 332.035156 224.777344 332.976562 225.59375 333.902344 226.429688 C 334.824219 227.265625 335.726562 228.121094 336.605469 229.003906 C 337.484375 229.882812 338.34375 230.785156 339.179688 231.707031 C 340.015625 232.628906 340.828125 233.574219 341.621094 234.535156 C 342.410156 235.5 343.175781 236.480469 343.917969 237.480469 C 344.660156 238.480469 345.375 239.496094 346.066406 240.53125 C 346.757812 241.570312 347.425781 242.621094 348.066406 243.6875 C 348.707031 244.757812 349.320312 245.839844 349.90625 246.9375 C 350.492188 248.035156 351.054688 249.148438 351.585938 250.273438 C 352.117188 251.398438 352.621094 252.535156 353.097656 253.6875 C 353.574219 254.835938 354.023438 256 354.441406 257.171875 C 354.863281 258.34375 355.253906 259.527344 355.613281 260.71875 C 355.976562 261.910156 356.308594 263.109375 356.609375 264.316406 C 356.914062 265.523438 357.1875 266.738281 357.429688 267.960938 C 357.671875 269.183594 357.882812 270.410156 358.066406 271.640625 C 358.25 272.871094 358.402344 274.105469 358.523438 275.347656 C 358.644531 276.585938 358.738281 277.828125 358.800781 279.070312 C 358.859375 280.316406 358.890625 281.558594 358.890625 282.804688 Z M 358.890625 282.804688 " fill-opacity="1" fill-rule="nonzero"/><g clip-path="url(#1f3efcf7c7)"><path fill="#1dc4e0" d="M 58.550781 14.5 L 122.621094 14.5 C 124.066406 14.5 125.503906 14.570312 126.941406 14.710938 C 128.375 14.855469 129.800781 15.066406 131.214844 15.347656 C 132.632812 15.628906 134.027344 15.976562 135.410156 16.398438 C 136.789062 16.816406 138.148438 17.300781 139.480469 17.851562 C 140.8125 18.40625 142.117188 19.019531 143.386719 19.703125 C 144.660156 20.382812 145.894531 21.121094 147.09375 21.925781 C 148.296875 22.726562 149.453125 23.582031 150.566406 24.5 C 151.683594 25.414062 152.75 26.382812 153.769531 27.402344 C 154.789062 28.421875 155.757812 29.488281 156.671875 30.605469 C 157.589844 31.71875 158.449219 32.878906 159.25 34.078125 C 160.050781 35.277344 160.792969 36.511719 161.472656 37.785156 C 162.152344 39.058594 162.765625 40.359375 163.320312 41.691406 C 163.871094 43.027344 164.355469 44.382812 164.777344 45.761719 C 165.195312 47.144531 165.542969 48.542969 165.828125 49.957031 C 166.109375 51.371094 166.320312 52.796875 166.460938 54.230469 C 166.601562 55.667969 166.671875 57.105469 166.671875 58.550781 L 166.671875 122.621094 C 166.671875 124.066406 166.601562 125.503906 166.460938 126.941406 C 166.320312 128.375 166.109375 129.800781 165.828125 131.214844 C 165.542969 132.632812 165.195312 134.027344 164.777344 135.410156 C 164.355469 136.789062 163.871094 138.148438 163.320312 139.480469 C 162.765625 140.8125 162.152344 142.117188 161.472656 143.386719 C 160.792969 144.660156 160.050781 145.894531 159.25 147.09375 C 158.449219 148.296875 157.589844 149.453125 156.671875 150.566406 C 155.757812 151.683594 154.789062 152.75 153.769531 153.769531 C 152.75 154.789062 151.683594 155.757812 150.566406 156.671875 C 149.453125 157.589844 148.296875 158.449219 147.09375 159.25 C 145.894531 160.050781 144.660156 160.792969 143.386719 161.472656 C 142.117188 162.152344 140.8125 162.765625 139.480469 163.320312 C 138.148438 163.871094 136.789062 164.355469 135.410156 164.777344 C 134.027344 165.195312 132.632812 165.542969 131.214844 165.828125 C 129.800781 166.109375 128.375 166.320312 126.941406 166.460938 C 125.503906 166.601562 124.066406 166.671875 122.621094 166.671875 L 58.550781 166.671875 C 57.105469 166.671875 55.667969 166.601562 54.230469 166.460938 C 52.796875 166.320312 51.371094 166.109375 49.957031 165.828125 C 48.542969 165.542969 47.144531 165.195312 45.761719 164.777344 C 44.382812 164.355469 43.027344 163.871094 41.691406 163.320312 C 40.359375 162.765625 39.058594 162.152344 37.785156 161.472656 C 36.511719 160.792969 35.277344 160.050781 34.078125 159.25 C 32.878906 158.449219 31.71875 157.589844 30.605469 156.671875 C 29.488281 155.757812 28.421875 154.789062 27.402344 153.769531 C 26.382812 152.75 25.414062 151.683594 24.5 150.566406 C 23.582031 149.453125 22.726562 148.296875 21.925781 147.09375 C 21.121094 145.894531 20.382812 144.660156 19.703125 143.386719 C 19.019531 142.117188 18.40625 140.8125 17.851562 139.480469 C 17.300781 138.148438 16.816406 136.789062 16.398438 135.410156 C 15.976562 134.027344 15.628906 132.632812 15.347656 131.214844 C 15.066406 129.800781 14.855469 128.375 14.710938 126.941406 C 14.570312 125.503906 14.5 124.066406 14.5 122.621094 L 14.5 58.550781 C 14.5 57.105469 14.570312 55.667969 14.710938 54.230469 C 14.855469 52.796875 15.066406 51.371094 15.347656 49.957031 C 15.628906 48.542969 15.976562 47.144531 16.398438 45.761719 C 16.816406 44.382812 17.300781 43.027344 17.851562 41.691406 C 18.40625 40.359375 19.019531 39.058594 19.703125 37.785156 C 20.382812 36.511719 21.121094 35.277344 21.925781 34.078125 C 22.726562 32.878906 23.582031 31.71875 24.5 30.605469 C 25.414062 29.488281 26.382812 28.421875 27.402344 27.402344 C 28.421875 26.382812 29.488281 25.414062 30.605469 24.5 C 31.71875 23.582031 32.878906 22.726562 34.078125 21.925781 C 35.277344 21.121094 36.511719 20.382812 37.785156 19.703125 C 39.058594 19.019531 40.359375 18.40625 41.691406 17.851562 C 43.027344 17.300781 44.382812 16.816406 45.761719 16.398438 C 47.144531 15.976562 48.542969 15.628906 49.957031 15.347656 C 51.371094 15.066406 52.796875 14.855469 54.230469 14.710938 C 55.667969 14.570312 57.105469 14.5 58.550781 14.5 Z M 58.550781 14.5 " fill-opacity="1" fill-rule="nonzero"/></g><g clip-path="url(#a8da4ea9f3)"><path fill="#1dc4e0" d="M 58.550781 206.71875 L 122.621094 206.71875 C 124.066406 206.71875 125.503906 206.789062 126.941406 206.929688 C 128.375 207.070312 129.800781 207.28125 131.214844 207.566406 C 132.632812 207.847656 134.027344 208.195312 135.410156 208.613281 C 136.789062 209.035156 138.148438 209.519531 139.480469 210.070312 C 140.8125 210.625 142.117188 211.238281 143.386719 211.917969 C 144.660156 212.597656 145.894531 213.339844 147.09375 214.140625 C 148.296875 214.941406 149.453125 215.800781 150.566406 216.71875 C 151.683594 217.632812 152.75 218.601562 153.769531 219.621094 C 154.789062 220.640625 155.757812 221.707031 156.671875 222.824219 C 157.589844 223.9375 158.449219 225.09375 159.25 226.296875 C 160.050781 227.496094 160.792969 228.730469 161.472656 230.003906 C 162.152344 231.273438 162.765625 232.578125 163.320312 233.910156 C 163.871094 235.242188 164.355469 236.601562 164.777344 237.980469 C 165.195312 239.363281 165.542969 240.757812 165.828125 242.175781 C 166.109375 243.589844 166.320312 245.015625 166.460938 246.449219 C 166.601562 247.886719 166.671875 249.324219 166.671875 250.769531 L 166.671875 314.839844 C 166.671875 316.285156 166.601562 317.722656 166.460938 319.160156 C 166.320312 320.59375 166.109375 322.019531 165.828125 323.433594 C 165.542969 324.847656 165.195312 326.246094 164.777344 327.628906 C 164.355469 329.007812 163.871094 330.363281 163.320312 331.699219 C 162.765625 333.03125 162.152344 334.332031 161.472656 335.605469 C 160.792969 336.878906 160.050781 338.113281 159.25 339.3125 C 158.449219 340.511719 157.589844 341.671875 156.671875 342.785156 C 155.757812 343.902344 154.789062 344.96875 153.769531 345.988281 C 152.75 347.007812 151.683594 347.976562 150.566406 348.890625 C 149.453125 349.808594 148.296875 350.664062 147.09375 351.46875 C 145.894531 352.269531 144.660156 353.007812 143.386719 353.6875 C 142.117188 354.371094 140.8125 354.984375 139.480469 355.539062 C 138.148438 356.089844 136.789062 356.574219 135.410156 356.992188 C 134.027344 357.414062 132.632812 357.761719 131.214844 358.042969 C 129.800781 358.324219 128.375 358.539062 126.941406 358.679688 C 125.503906 358.820312 124.066406 358.890625 122.621094 358.890625 L 58.550781 358.890625 C 57.105469 358.890625 55.667969 358.820312 54.230469 358.679688 C 52.796875 358.539062 51.371094 358.324219 49.957031 358.042969 C 48.542969 357.761719 47.144531 357.414062 45.761719 356.992188 C 44.382812 356.574219 43.027344 356.089844 41.691406 355.539062 C 40.359375 354.984375 39.058594 354.371094 37.785156 353.6875 C 36.511719 353.007812 35.277344 352.269531 34.078125 351.46875 C 32.878906 350.664062 31.71875 349.808594 30.605469 348.890625 C 29.488281 347.976562 28.421875 347.007812 27.402344 345.988281 C 26.382812 344.96875 25.414062 343.902344 24.5 342.785156 C 23.582031 341.671875 22.726562 340.511719 21.925781 339.3125 C 21.121094 338.113281 20.382812 336.878906 19.703125 335.605469 C 19.019531 334.332031 18.40625 333.03125 17.851562 331.699219 C 17.300781 330.363281 16.816406 329.007812 16.398438 327.628906 C 15.976562 326.246094 15.628906 324.847656 15.347656 323.433594 C 15.066406 322.019531 14.855469 320.59375 14.710938 319.160156 C 14.570312 317.722656 14.5 316.285156 14.5 314.839844 L 14.5 250.769531 C 14.5 249.324219 14.570312 247.886719 14.710938 246.449219 C 14.855469 245.015625 15.066406 243.589844 15.347656 242.175781 C 15.628906 240.757812 15.976562 239.363281 16.398438 237.980469 C 16.816406 236.601562 17.300781 235.242188 17.851562 233.910156 C 18.40625 232.578125 19.019531 231.273438 19.703125 230.003906 C 20.382812 228.730469 21.121094 227.496094 21.925781 226.296875 C 22.726562 225.09375 23.582031 223.9375 24.5 222.824219 C 25.414062 221.707031 26.382812 220.640625 27.402344 219.621094 C 28.421875 218.601562 29.488281 217.632812 30.605469 216.71875 C 31.71875 215.800781 32.878906 214.941406 34.078125 214.140625 C 35.277344 213.339844 36.511719 212.597656 37.785156 211.917969 C 39.058594 211.238281 40.359375 210.625 41.691406 210.070312 C 43.027344 209.519531 44.382812 209.035156 45.761719 208.613281 C 47.144531 208.195312 48.542969 207.847656 49.957031 207.566406 C 51.371094 207.28125 52.796875 207.070312 54.230469 206.929688 C 55.667969 206.789062 57.105469 206.71875 58.550781 206.71875 Z M 58.550781 206.71875 " fill-opacity="1" fill-rule="nonzero"/></g><g clip-path="url(#2677c1a3ec)"><path fill="#1dc4e0" d="M 250.769531 14.5 L 314.839844 14.5 C 316.285156 14.5 317.722656 14.570312 319.160156 14.710938 C 320.59375 14.855469 322.019531 15.066406 323.433594 15.347656 C 324.847656 15.628906 326.246094 15.976562 327.628906 16.398438 C 329.007812 16.816406 330.363281 17.300781 331.699219 17.851562 C 333.03125 18.40625 334.332031 19.019531 335.605469 19.703125 C 336.878906 20.382812 338.113281 21.121094 339.3125 21.925781 C 340.511719 22.726562 341.671875 23.582031 342.785156 24.5 C 343.902344 25.414062 344.96875 26.382812 345.988281 27.402344 C 347.007812 28.421875 347.976562 29.488281 348.890625 30.605469 C 349.808594 31.71875 350.664062 32.878906 351.46875 34.078125 C 352.269531 35.277344 353.007812 36.511719 353.6875 37.785156 C 354.371094 39.058594 354.984375 40.359375 355.539062 41.691406 C 356.089844 43.027344 356.574219 44.382812 356.992188 45.761719 C 357.414062 47.144531 357.761719 48.542969 358.042969 49.957031 C 358.324219 51.371094 358.539062 52.796875 358.679688 54.230469 C 358.820312 55.667969 358.890625 57.105469 358.890625 58.550781 L 358.890625 122.621094 C 358.890625 124.066406 358.820312 125.503906 358.679688 126.941406 C 358.539062 128.375 358.324219 129.800781 358.042969 131.214844 C 357.761719 132.632812 357.414062 134.027344 356.992188 135.410156 C 356.574219 136.789062 356.089844 138.148438 355.539062 139.480469 C 354.984375 140.8125 354.371094 142.117188 353.6875 143.386719 C 353.007812 144.660156 352.269531 145.894531 351.46875 147.09375 C 350.664062 148.296875 349.808594 149.453125 348.890625 150.566406 C 347.976562 151.683594 347.007812 152.75 345.988281 153.769531 C 344.96875 154.789062 343.902344 155.757812 342.785156 156.671875 C 341.671875 157.589844 340.511719 158.449219 339.3125 159.25 C 338.113281 160.050781 336.878906 160.792969 335.605469 161.472656 C 334.332031 162.152344 333.03125 162.765625 331.699219 163.320312 C 330.363281 163.871094 329.007812 164.355469 327.628906 164.777344 C 326.246094 165.195312 324.847656 165.542969 323.433594 165.828125 C 322.019531 166.109375 320.59375 166.320312 319.160156 166.460938 C 317.722656 166.601562 316.285156 166.671875 314.839844 166.671875 L 250.769531 166.671875 C 249.324219 166.671875 247.886719 166.601562 246.449219 166.460938 C 245.015625 166.320312 243.589844 166.109375 242.175781 165.828125 C 240.757812 165.542969 239.363281 165.195312 237.980469 164.777344 C 236.601562 164.355469 235.242188 163.871094 233.910156 163.320312 C 232.578125 162.765625 231.273438 162.152344 230.003906 161.472656 C 228.730469 160.792969 227.496094 160.050781 226.296875 159.25 C 225.09375 158.449219 223.9375 157.589844 222.824219 156.671875 C 221.707031 155.757812 220.640625 154.789062 219.621094 153.769531 C 218.601562 152.75 217.632812 151.683594 216.71875 150.566406 C 215.800781 149.453125 214.941406 148.296875 214.140625 147.09375 C 213.339844 145.894531 212.597656 144.660156 211.917969 143.386719 C 211.238281 142.117188 210.625 140.8125 210.070312 139.480469 C 209.519531 138.148438 209.035156 136.789062 208.613281 135.410156 C 208.195312 134.027344 207.847656 132.632812 207.566406 131.214844 C 207.28125 129.800781 207.070312 128.375 206.929688 126.941406 C 206.789062 125.503906 206.71875 124.066406 206.71875 122.621094 L 206.71875 58.550781 C 206.71875 57.105469 206.789062 55.667969 206.929688 54.230469 C 207.070312 52.796875 207.28125 51.371094 207.566406 49.957031 C 207.847656 48.542969 208.195312 47.144531 208.613281 45.761719 C 209.035156 44.382812 209.519531 43.027344 210.070312 41.691406 C 210.625 40.359375 211.238281 39.058594 211.917969 37.785156 C 212.597656 36.511719 213.339844 35.277344 214.140625 34.078125 C 214.941406 32.878906 215.800781 31.71875 216.71875 30.605469 C 217.632812 29.488281 218.601562 28.421875 219.621094 27.402344 C 220.640625 26.382812 221.707031 25.414062 222.824219 24.5 C 223.9375 23.582031 225.09375 22.726562 226.296875 21.925781 C 227.496094 21.121094 228.730469 20.382812 230.003906 19.703125 C 231.273438 19.019531 232.578125 18.40625 233.910156 17.851562 C 235.242188 17.300781 236.601562 16.816406 237.980469 16.398438 C 239.363281 15.976562 240.757812 15.628906 242.175781 15.347656 C 243.589844 15.066406 245.015625 14.855469 246.449219 14.710938 C 247.886719 14.570312 249.324219 14.5 250.769531 14.5 Z M 250.769531 14.5 " fill-opacity="1" fill-rule="nonzero"/></g></svg>